PathFileType	4	(X/Y/Z)	/Users/itak/Documents/Research/Walk-IL/dataset/trc/00408_00012.trc
DataRate	CameraRate	NumFrames	NumMarkers	Units	OrigDataRate	OrigDataStartFrame	OrigNumFrames
100.000000	100.000000	4	55	mm	100.000000	336	673
Frame#	Time	RPSI			LPSI			L3			STRN			T10			C7			CLAV			RBAK			LBAK			LSHO			LUPA			LAEL			LAOL			LWTS			LWPS			LFRA			LHPS			LHTS			RSHO			RUPA			RAEL			RAOL			RWTS			RWPS			RFRA			RIFD			RHPS			RBHD			LFHD			RFHD			LBHD			LHIP			RHIP			RASI			LASI			LKNE			LTHI			LANK			LTIP			LTOE			LMT1			LMT5			LHEE			RKNE			RTHI			RANK			RTIP			RTOE			RMT1			RMT5			RHEE			RHTS			LIFD			*53			*54			
		X1	Y1	Z1	X2	Y2	Z2	X3	Y3	Z3	X4	Y4	Z4	X5	Y5	Z5	X6	Y6	Z6	X7	Y7	Z7	X8	Y8	Z8	X9	Y9	Z9	X10	Y10	Z10	X11	Y11	Z11	X12	Y12	Z12	X13	Y13	Z13	X14	Y14	Z14	X15	Y15	Z15	X16	Y16	Z16	X17	Y17	Z17	X18	Y18	Z18	X19	Y19	Z19	X20	Y20	Z20	X21	Y21	Z21	X22	Y22	Z22	X23	Y23	Z23	X24	Y24	Z24	X25	Y25	Z25	X26	Y26	Z26	X27	Y27	Z27	X28	Y28	Z28	X29	Y29	Z29	X30	Y30	Z30	X31	Y31	Z31	X32	Y32	Z32	X33	Y33	Z33	X34	Y34	Z34	X35	Y35	Z35	X36	Y36	Z36	X37	Y37	Z37	X38	Y38	Z38	X39	Y39	Z39	X40	Y40	Z40	X41	Y41	Z41	X42	Y42	Z42	X43	Y43	Z43	X44	Y44	Z44	X45	Y45	Z45	X46	Y46	Z46	X47	Y47	Z47	X48	Y48	Z48	X49	Y49	Z49	X50	Y50	Z50	X51	Y51	Z51	X52	Y52	Z52	X53	Y53	Z53	X54	Y54	Z54	X55	Y55	Z55	

337	3.36	-466.1062316894531	922.1845703125	-521.8179931640625	-530.7686157226562	928.2813720703125	-636.53564453125	-496.6477661132812	1004.534362792969	-579.3054809570312	-277.3121643066406	1152.065185546875	-662.2512817382812	-511.7544860839844	1107.326049804688	-581.6893920898438	-471.3057556152344	1355.140014648438	-597.3718872070312	-323.1578674316406	1271.853881835938	-636.6808471679688	-504.0941162109375	1206.699951171875	-532.167236328125	-519.4951171875	1326.300903320312	-693.4156494140625	-447.1736450195312	1342.79248046875	-764.1026000976562	-497.1806335449219	1231.31884765625	-830.9342651367188	-494.4681701660156	1053.233764648438	-892.30615234375	-512.2643432617188	1004.148132324219	-823.4591064453125	-298.6834411621094	993.803466796875	-954.5977172851562	-344.243896484375	949.0147705078125	-1007.94775390625	-441.8248291015625	995.4428100585938	-940.8384399414062	-271.1907653808594	911.980224609375	-1037.817749023438	-228.9904632568359	955.9857788085938	-1017.957336425781	-383.3605041503906	1322.375854492188	-460.3007202148438	-400.5597534179688	1260.815795898438	-405.8055725097656	-478.0272521972656	1013.439575195312	-375.0957641601562	-482.9076843261719	1004.759521484375	-469.3786926269531	-433.8734741210938	768.52783203125	-377.1027221679688	-481.2562866210938	780.7273559570312	-322.3509521484375	-478.6655883789062	948.6207885742188	-352.2579650878906	-510.6081237792969	611.9596557617188	-368.3121948242188	-513.683837890625	697.9751586914062	-318.6312255859375	-425.2483825683594	1527.478271484375	-510.4802856445312	-309.1943969726562	1554.673461914062	-669.7142333984375	-299.0749816894531	1545.476440429688	-547.7156982421875	-456.4163818359375	1536.493408203125	-669.4993896484375	-513.1162109375	921.3406372070312	-779.3988647460938	-338.476806640625	897.051025390625	-464.7971801757812	-254.8317718505859	909.6307373046875	-580.748291015625	-394.2082824707031	908.4254150390625	-804.9213256835938	-584.749755859375	443.0116577148438	-751.2757568359375	-553.70703125	581.8792724609375	-769.3353271484375	-851.74462890625	99.28248596191406	-587.9492797851562	-730.0557861328125	267.2755432128906	-679.4969482421875	-657.0936279296875	39.09652328491211	-646.1831665039062	-696.7307739257812	55.38247680664062	-580.3145751953125	-767.2664184570312	42.97607421875	-659.2232666015625	-848.80029296875	120.8295669555664	-522.3977661132812	-178.4905548095703	454.7170104980469	-634.8294067382812	-227.389892578125	694.914306640625	-543.3638916015625	-146.9246673583984	46.97796630859375	-741.0540771484375	-145.2129058837891	339.9349060058594	-681.5921020507812	0.05470605567097664	55.56871795654297	-856.8867797851562	-80.09445953369141	50.59455108642578	-862.9635009765625	-65.48796081542969	45.11065292358398	-764.5195922851562	-230.9117126464844	32.85275268554688	-770.1875	-466.3799133300781	666.59423828125	-354.7013549804688	-168.9968566894531	895.0186157226562	-1033.448974609375	nan	nan	nan	nan	nan	nan	
338	3.37	-454.211669921875	923.8186645507812	-526.9077758789062	-518.11083984375	928.9061889648438	-642.2723999023438	-484.4455871582031	1005.219543457031	-585.0720825195312	-266.0420837402344	1154.001586914062	-666.1044921875	-500.8489990234375	1107.986083984375	-586.6541748046875	-461.6446228027344	1355.821655273438	-601.8507080078125	-312.7312316894531	1273.491455078125	-640.474609375	-493.7335815429688	1207.078125	-537.2198486328125	-509.1929321289062	1327.038452148438	-698.1922607421875	-436.5810241699219	1343.877197265625	-768.5138549804688	-486.112060546875	1232.08251953125	-835.1682739257812	-483.0806884765625	1053.242919921875	-895.5543823242188	-501.3492431640625	1005.145874023438	-826.1119384765625	-287.6351623535156	989.6787719726562	-956.465087890625	-333.7450256347656	944.9658203125	-1009.42822265625	-430.7640991210938	993.9791259765625	-943.2145385742188	-261.179443359375	906.0679931640625	-1038.120483398438	-218.1923828125	949.7020263671875	-1018.625122070312	-374.4241943359375	1323.210571289062	-464.3419494628906	-391.5054321289062	1261.382080078125	-410.1639709472656	-467.0359191894531	1013.394104003906	-380.3438415527344	-471.3124694824219	1004.810852050781	-474.6845092773438	-420.4821166992188	768.9423828125	-382.6275024414062	-468.2371520996094	780.4487915039062	-328.0486145019531	-467.1867980957031	948.4869384765625	-357.6059875488281	-495.6204223632812	611.5577392578125	-374.7254028320312	-499.8673400878906	697.3928833007812	-324.7988586425781	-416.57275390625	1528.591796875	-514.38134765625	-299.7201843261719	1555.920532226562	-672.9822387695312	-290.2398986816406	1546.747680664062	-550.9424438476562	-446.8977661132812	1537.61474609375	-673.5719604492188	-499.3247985839844	921.3966064453125	-784.9680786132812	-326.8487243652344	899.3456420898438	-468.9588623046875	-242.4822845458984	911.8893432617188	-584.2191772460938	-380.2783508300781	908.8285522460938	-809.1043701171875	-569.4451293945312	442.8639221191406	-759.676513671875	-538.4139404296875	581.3321533203125	-776.2503662109375	-846.8941040039062	107.8100433349609	-593.7688598632812	-719.9164428710938	271.9009094238281	-686.897216796875	-657.1407470703125	39.03419876098633	-646.4373168945312	-695.0444946289062	57.77119064331055	-583.0115966796875	-765.5709838867188	43.93815612792969	-661.565185546875	-842.6688232421875	132.2911224365234	-529.4774169921875	-167.4603576660156	456.2433776855469	-640.0689697265625	-215.2966156005859	696.5059204101562	-547.5552978515625	-145.4057769775391	47.1685791015625	-742.2344360351562	-136.4136505126953	340.3807983398438	-686.5348510742188	1.73680055141449	49.70095062255859	-859.2945556640625	-79.00247192382812	46.97509765625	-864.7224731445312	-64.37730407714844	43.69327926635742	-766.139404296875	-229.8916778564453	34.27127838134766	-770.4104614257812	-452.0534362792969	666.5888671875	-360.7053527832031	-159.5128936767578	887.06884765625	-1032.433837890625	nan	nan	nan	nan	nan	nan	
339	3.38	-442.5094909667969	925.5931396484375	-531.8172607421875	-505.58837890625	929.701416015625	-647.7909545898438	-472.2597351074219	1006.331115722656	-590.5781860351562	-254.7562713623047	1156.323608398438	-669.8572387695312	-489.8899841308594	1108.934692382812	-591.5514526367188	-451.9483642578125	1356.780151367188	-606.2599487304688	-302.3251037597656	1275.510498046875	-644.2138061523438	-483.3256225585938	1207.791137695312	-542.1901245117188	-498.859130859375	1328.077514648438	-702.881103515625	-425.9842224121094	1345.293823242188	-772.8271484375	-475.007080078125	1233.224243164062	-839.344482421875	-471.6984252929688	1053.587036132812	-898.6005859375	-490.4162292480469	1006.577941894531	-828.519775390625	-276.7539672851562	985.2750854492188	-958.2098999023438	-323.700927734375	940.5457153320312	-1010.582702636719	-419.8390197753906	992.658203125	-945.3867797851562	-251.8110656738281	899.6940307617188	-1038.192504882812	-207.8467407226562	942.785400390625	-1019.166320800781	-365.4149475097656	1324.390258789062	-468.3630676269531	-382.33203125	1262.3291015625	-414.466796875	-455.6932373046875	1013.697692871094	-385.4082336425781	-459.478515625	1005.2265625	-479.79833984375	-406.3656005859375	769.7716674804688	-388.0641174316406	-454.4436645507812	780.4838256835938	-333.5744934082031	-455.228515625	948.676025390625	-362.7673950195312	-479.7375183105469	611.4908447265625	-381.0682983398438	-485.2275390625	697.08203125	-330.8403930664062	-407.8869323730469	1529.914794921875	-518.2080078125	-290.1847229003906	1557.452758789062	-676.118896484375	-281.3936767578125	1548.238525390625	-554.053466796875	-437.3246765136719	1539.015502929688	-677.5701293945312	-485.613525390625	921.7310791015625	-790.2904052734375	-315.4351196289062	901.8550415039062	-472.9210205078125	-230.2072906494141	914.5440063476562	-587.3964233398438	-366.3919372558594	909.622802734375	-812.9407958984375	-553.1300048828125	442.6869506835938	-768.9302978515625	-522.3953857421875	580.778076171875	-783.6276245117188	-840.9380493164062	117.1213150024414	-600.7681884765625	-708.5796508789062	276.573486328125	-695.3699951171875	-657.1163940429688	38.8205451965332	-646.7808227539062	-692.9994506835938	60.29518508911133	-586.1637573242188	-763.44775390625	45.34442138671875	-664.45654296875	-835.234130859375	144.3785095214844	-537.8921508789062	-156.6988220214844	457.8304443359375	-645.2644653320312	-203.2901000976562	698.44384765625	-551.9136352539062	-144.1393432617188	47.45226287841797	-743.2401733398438	-128.0972290039062	340.862060546875	-691.2784423828125	2.894752740859985	45.14097595214844	-861.3724975585938	-78.33043670654297	44.27531051635742	-866.2202758789062	-63.52956771850586	42.87349700927734	-767.5508422851562	-229.0064392089844	35.40847015380859	-770.4911499023438	-436.8568115234375	666.95166015625	-366.6602478027344	-150.8735656738281	878.21728515625	-1031.262451171875	nan	nan	nan	nan	nan	nan	
340	3.39	-431.013671875	927.3937377929688	-536.5103149414062	-493.2783508300781	930.5736694335938	-653.0259399414062	-460.1675109863281	1007.815124511719	-595.7456665039062	-243.4812469482422	1158.918090820312	-673.5045776367188	-478.8708190917969	1110.094482421875	-596.4105224609375	-442.2256164550781	1357.955444335938	-610.5950927734375	-291.9589538574219	1277.81201171875	-647.910400390625	-472.9014587402344	1208.776000976562	-547.0459594726562	-488.5194091796875	1329.34033203125	-707.4699096679688	-415.4008178710938	1346.956176757812	-777.0360717773438	-463.8802490234375	1234.667602539062	-843.4793090820312	-460.340576171875	1054.207397460938	-901.4888305664062	-479.4821166992188	1008.357666015625	-830.7511596679688	-266.05419921875	980.6058959960938	-959.8250732421875	-314.0821228027344	935.825439453125	-1011.443237304688	-409.05810546875	991.4501342773438	-947.3948974609375	-243.0444183349609	892.923095703125	-1038.052001953125	-197.9753112792969	935.2703247070312	-1019.559509277344	-356.3200378417969	1325.8515625	-472.3647155761719	-373.0223388671875	1263.600219726562	-418.7053833007812	-444.0466613769531	1014.311645507812	-390.2506103515625	-447.46337890625	1005.960571289062	-484.6798706054688	-391.5636901855469	770.9947509765625	-393.3755798339844	-439.9081115722656	780.8038330078125	-338.8876647949219	-442.829345703125	949.14892578125	-367.7018737792969	-462.9720153808594	611.7345581054688	-387.3258361816406	-469.7672424316406	697.0010986328125	-336.7222290039062	-399.2066955566406	1531.3544921875	-521.9722290039062	-280.59521484375	1559.22021484375	-679.12939453125	-272.5426635742188	1549.879638671875	-557.0503540039062	-427.6999816894531	1540.623657226562	-681.5021362304688	-472.1047058105469	922.2743530273438	-795.3159790039062	-304.2274475097656	904.446044921875	-476.6642150878906	-218.0574493408203	917.4573364257812	-590.31396484375	-352.6727905273438	910.7493896484375	-816.4552612304688	-535.8404541015625	442.428955078125	-778.962158203125	-505.740966796875	580.1739501953125	-791.44580078125	-833.76708984375	127.1629180908203	-609.0814819335938	-696.0170288085938	281.1746826171875	-704.9058837890625	-656.8998413085938	38.37358856201172	-647.2902221679688	-690.5248413085938	63.01711273193359	-589.8081665039062	-760.77099609375	47.34224319458008	-668.0330810546875	-826.4708862304688	156.9160003662109	-547.7001953125	-146.4085235595703	459.3130187988281	-650.3246459960938	-191.4018249511719	700.5645751953125	-556.3887329101562	-143.1258392333984	47.78645324707031	-744.0960693359375	-120.3726119995117	341.2711486816406	-695.7946166992188	3.645633935928345	41.74810028076172	-863.1199340820312	-77.97109222412109	42.3366813659668	-867.489990234375	-62.91459274291992	42.51256942749023	-768.7791137695312	-228.2910766601562	36.27652359008789	-770.4970703125	-420.812744140625	667.6586303710938	-372.5404357910156	-143.1111297607422	868.53271484375	-1029.929077148438	nan	nan	nan	nan	nan	nan	
